<svg width="68" height="43" viewBox="0 0 68 43" fill="none" xmlns="http://www.w3.org/2000/svg">
<path d="M1.00752 33.2739C0.757512 33.7117 0.690065 34.2453 0.805179 34.8748C0.920292 35.5043 1.19144 36.1688 1.61863 36.8684C2.04581 37.5679 2.59343 38.2443 3.26149 38.8973C3.92954 39.5504 4.69151 40.1194 5.54739 40.6044C6.13725 40.9387 6.63098 41.0659 7.02858 40.9862C7.42618 40.9066 7.73024 40.6824 7.94078 40.3137C8.16447 39.9219 8.2733 39.4499 8.26727 38.8974C8.26781 38.3335 8.07752 37.6614 7.69639 36.8812L8.03255 36.6142C8.28265 37.0609 8.48499 37.5645 8.63957 38.1248C8.79416 38.6851 8.85553 39.2613 8.82369 39.8532C8.78685 40.4271 8.61711 40.979 8.31447 41.509C7.89998 42.2349 7.35047 42.7013 6.66595 42.9081C5.98142 43.115 5.20544 42.9726 4.33799 42.4811C3.7944 42.173 3.25637 41.7614 2.72392 41.2462C2.19147 40.7309 1.71006 40.1532 1.27969 39.5128C0.855901 38.8609 0.529416 38.1726 0.300236 37.448C0.0710554 36.7234 -0.026919 35.9969 0.00631262 35.2685C0.0279782 34.5335 0.229607 33.8319 0.611199 33.1637C0.92042 32.6221 1.31909 32.2457 1.8072 32.0343C2.3019 31.8114 2.78635 31.8343 3.26055 32.103C3.50343 32.2406 3.71342 32.4359 3.89051 32.6887C4.06761 32.9416 4.1779 33.2175 4.2214 33.5167C4.25333 33.8093 4.19035 34.0938 4.03245 34.3704C3.8877 34.6238 3.70068 34.7771 3.47137 34.8302C3.24207 34.8832 3.01754 34.8475 2.79778 34.723C2.41611 34.5067 2.17121 34.1849 2.0631 33.7576C1.95 33.3123 1.95494 32.8881 2.07793 32.4851C1.87993 32.5101 1.6911 32.5861 1.51145 32.7131C1.32682 32.8219 1.15884 33.0089 1.00752 33.2739Z" fill="white"/>
<path d="M10.5725 20.5122L16.2182 29.8751L14.7991 31.4114L10.2144 23.7776C10.0992 24.1764 9.95212 24.5999 9.77309 25.0483C9.60306 25.4868 9.36134 26.0128 9.04794 26.6262L8.78004 26.2996C9.19765 25.4755 9.50597 24.7404 9.705 24.0942C9.90403 23.4481 10.0441 22.8559 10.1252 22.3179C10.2063 21.7798 10.2653 21.2754 10.3022 20.8049L10.5725 20.5122Z" fill="white"/>
<path d="M17.0473 14.9751C17.8623 14.3137 18.6549 14.0552 19.4251 14.1996C20.2056 14.3355 20.9783 14.8711 21.743 15.8063C22.4742 16.7004 22.9931 17.6813 23.2997 18.7489C23.6064 19.8165 23.7501 20.9052 23.7308 22.015C23.7116 23.1248 23.5684 24.1984 23.3012 25.2359C23.0527 26.2753 22.7141 27.2254 22.2853 28.0862C21.8669 28.9387 21.4211 29.6423 20.948 30.1972L20.6031 29.9642C21.0406 29.3869 21.4002 28.6933 21.6819 27.8835C21.9636 27.0736 22.1429 26.2015 22.2198 25.2672C22.307 24.3244 22.2787 23.3558 22.1348 22.3613C21.9824 21.3565 21.7004 20.3715 21.2887 19.4063C20.8873 18.4327 20.3294 17.5091 19.6151 16.6356C18.9932 15.8751 18.4802 15.4366 18.076 15.32C17.6821 15.1952 17.3252 15.2625 17.0054 15.522C16.6031 15.8485 16.3629 16.2999 16.2849 16.8761C16.2172 17.4439 16.2622 18.0656 16.4199 18.7412C16.5879 19.4084 16.8285 20.0594 17.1417 20.6943C17.4568 21.3105 17.7951 21.8396 18.1564 22.2815C18.5934 22.8159 18.9911 23.1343 19.3495 23.2367C19.6994 23.3289 20.0137 23.2619 20.2922 23.0359C20.5708 22.8098 20.7597 22.4428 20.8591 21.9347C20.9585 21.4266 20.8444 20.7414 20.5167 19.8789L20.8554 19.7579C21.1319 20.4738 21.2654 21.1093 21.2557 21.6642C21.2461 22.2191 21.1309 22.6973 20.91 23.0988C20.6994 23.4919 20.4342 23.8182 20.1144 24.0777C19.5161 24.5633 18.8664 24.7657 18.1653 24.6849C17.4662 24.5855 16.8098 24.1607 16.1964 23.4104C15.7005 22.8041 15.3443 22.1272 15.1278 21.3797C14.9216 20.6238 14.8587 19.8542 14.939 19.071C15.0109 18.2774 15.2204 17.5262 15.5674 16.8172C15.9247 16.0998 16.418 15.4858 17.0473 14.9751Z" fill="white"/>
<path d="M27.3336 8.2694C28.2505 7.75727 29.0759 7.63817 29.8097 7.91212C30.5552 8.17958 31.2241 8.83938 31.8163 9.89151C32.3824 10.8974 32.7245 11.9524 32.8426 13.0566C32.9607 14.1608 32.9146 15.258 32.7043 16.348C32.4941 17.438 32.1679 18.4712 31.7259 19.4475C31.302 20.429 30.8046 21.307 30.2338 22.0818C29.6746 22.85 29.1142 23.4669 28.5525 23.9326L28.2528 23.6441C28.7834 23.1502 29.2572 22.5285 29.6743 21.7788C30.0914 21.0292 30.4183 20.2007 30.6552 19.2934C30.9036 18.3796 31.0426 17.4205 31.0723 16.4161C31.0954 15.4002 30.9874 14.3816 30.7481 13.3603C30.5205 12.3325 30.1301 11.3272 29.577 10.3444C29.0954 9.48885 28.6656 8.9691 28.2875 8.78518C27.921 8.59477 27.5578 8.60005 27.198 8.80102C26.7454 9.05384 26.431 9.4574 26.2548 10.0117C26.0902 10.5595 26.0274 11.1797 26.0663 11.8722C26.1168 12.5582 26.2416 13.2408 26.4408 13.9198C26.645 14.5807 26.887 15.1598 27.1668 15.657C27.5052 16.2582 27.8421 16.6399 28.1775 16.8021C28.5063 16.9527 28.8275 16.9405 29.1408 16.7655C29.4542 16.5905 29.7036 16.2612 29.8891 15.7777C30.0746 15.2941 30.0803 14.5995 29.9061 13.6938L30.2607 13.6326C30.4097 14.3852 30.4316 15.034 30.3265 15.579C30.2214 16.124 30.0254 16.5754 29.7386 16.9331C29.4634 17.2844 29.1459 17.5605 28.7861 17.7615C28.1129 18.1375 27.438 18.2257 26.7613 18.0262C26.0896 17.8087 25.5163 17.2779 25.0412 16.4339C24.6573 15.7517 24.4231 15.0239 24.3386 14.2505C24.2658 13.4706 24.3364 12.7017 24.5506 11.9438C24.7582 11.1743 25.0941 10.4701 25.5581 9.83096C26.0338 9.18536 26.6256 8.66484 27.3336 8.2694Z" fill="white"/>
<path d="M39.5162 3.21601C40.5639 2.86782 41.4664 2.9032 42.224 3.32217C42.9773 3.72856 43.5308 4.45987 43.8845 5.51608C44.1667 6.35853 44.2826 7.24924 44.2324 8.18819C44.1779 9.11457 43.9699 10.0012 43.6083 10.848C43.2466 11.6948 42.7545 12.4453 42.1319 13.0993C41.5178 13.7366 40.7815 14.1979 39.9232 14.4832C38.9008 14.823 37.9961 14.8023 37.2092 14.421C36.418 14.0272 35.8392 13.2834 35.4728 12.1894C35.1865 11.3344 35.0726 10.45 35.1313 9.53617C35.2026 8.61817 35.4232 7.72737 35.7933 6.86379C36.1633 6.0002 36.6618 5.24765 37.2886 4.60615C37.928 3.96046 38.6705 3.49708 39.5162 3.21601ZM39.2891 3.66877C38.7716 3.84077 38.3383 4.20137 37.9892 4.75058C37.6485 5.28302 37.3962 5.9328 37.2323 6.69992C37.081 7.46285 37.0392 8.28025 37.1067 9.1521C37.1743 10.024 37.3513 10.8874 37.6376 11.7424C37.9872 12.7861 38.3829 13.465 38.8248 13.7793C39.2667 14.0935 39.7085 14.1773 40.1503 14.0304C40.7057 13.8458 41.1495 13.4748 41.4818 12.9172C41.814 12.3596 42.039 11.6909 42.1566 10.9113C42.2742 10.1316 42.2929 9.3079 42.2127 8.44024C42.1409 7.55581 41.9682 6.70494 41.6945 5.88763C41.3576 4.88171 40.9829 4.22372 40.5704 3.91364C40.158 3.60357 39.7309 3.52194 39.2891 3.66877Z" fill="white"/>
<path d="M47.5729 5.90975L54.7059 4.89567L54.559 6.26222L47.4259 7.2763L47.5729 5.90975Z" fill="white"/>
<path d="M63.7371 8.98791C63.782 9.33372 63.8561 9.57415 63.9593 9.7092C64.0758 9.84457 64.2206 9.91432 64.3935 9.91844C64.5797 9.92288 64.7753 9.81484 64.9803 9.59433C65.1985 9.37413 65.4496 8.89616 65.7335 8.16042L66.0106 7.43114L66.3897 7.44018L65.856 8.87933C65.6567 9.4182 65.4205 9.83023 65.1475 10.1154C64.8744 10.4006 64.5903 10.5927 64.2951 10.6918C63.9996 10.804 63.6988 10.8565 63.3929 10.8492C62.9273 10.8381 62.5247 10.6959 62.1852 10.4227C61.8594 10.1364 61.665 9.64122 61.602 8.93699L60.9735 1.86152C60.9285 1.51571 60.8476 1.28175 60.7308 1.15963C60.6142 1.02426 60.4695 0.954512 60.2966 0.950388C60.1769 0.947533 60.0494 0.990899 59.9141 1.08049C59.7792 1.15682 59.6354 1.32576 59.4827 1.5873C59.3303 1.83559 59.1617 2.20283 58.977 2.68901L58.7 3.41828L58.3208 3.40924L58.8546 1.9701C59.0671 1.43154 59.3033 1.01951 59.5631 0.734009C59.8228 0.448503 60.107 0.256392 60.4155 0.157676C60.7243 0.0457085 61.0317 -0.0066269 61.3376 0.000669593C61.8564 0.0130419 62.2656 0.155392 62.5652 0.427719C62.8648 0.700046 63.0454 1.21483 63.1071 1.97207L63.7371 8.98791ZM65.3576 1.36941C64.963 1.73126 64.6134 2.15384 64.309 2.63717C64.0181 3.10756 63.7671 3.58553 63.5558 4.07108C63.3444 4.55663 63.1608 4.99643 63.005 5.39049C63.005 5.39049 62.9384 5.3889 62.8054 5.38573C62.6727 5.3693 62.6064 5.36109 62.6064 5.36109C62.6919 5.12447 62.7917 4.84841 62.9058 4.53291C63.0331 4.21773 63.1876 3.8833 63.3691 3.52964C63.551 3.16272 63.7662 2.78997 64.0149 2.41138C64.2639 2.01955 64.5457 1.64838 64.8602 1.29789C65.2568 0.856535 65.6168 0.553531 65.9402 0.388875C66.2772 0.211284 66.612 0.126455 66.9446 0.134386C67.2639 0.141999 67.5212 0.23432 67.7166 0.411349C67.9123 0.575126 68.0066 0.802781 67.9996 1.09431C67.9923 1.3991 67.8729 1.66143 67.6413 1.88132C67.4234 2.08826 67.1348 2.18746 66.7757 2.17889C66.4564 2.17128 66.1722 2.09157 65.9229 1.93978C65.6737 1.78798 65.4852 1.59786 65.3576 1.36941ZM58.894 9.46907C59.493 8.91321 60.021 8.26285 60.4782 7.51798C60.9353 6.77311 61.2846 6.08534 61.526 5.45466C61.526 5.45466 61.5855 5.46934 61.7046 5.4987C61.824 5.5148 61.8837 5.52286 61.8837 5.52286C61.7418 5.89073 61.5656 6.29756 61.3553 6.74335C61.1452 7.17589 60.8813 7.63367 60.5636 8.11668C60.2595 8.58675 59.8822 9.05508 59.4318 9.52167C59.0358 9.93652 58.6625 10.2392 58.3119 10.4297C57.9745 10.6206 57.6462 10.7122 57.327 10.7046C56.9811 10.6963 56.7171 10.6038 56.535 10.4271C56.3526 10.2637 56.2647 10.0428 56.2714 9.76452C56.2791 9.44648 56.4052 9.18431 56.6497 8.978C56.8813 8.75811 57.1633 8.65214 57.4959 8.66007C57.8417 8.66832 58.1258 8.75465 58.3482 8.91906C58.5705 9.08347 58.7524 9.26681 58.894 9.46907Z" fill="white"/>
</svg>
